<mxfile host="Electron" agent="Mozilla/5.0 (Macintosh; Intel Mac OS X 10_15_7) AppleWebKit/537.36 (KHTML, like Gecko) draw.io/28.0.4 Chrome/138.0.7204.97 Electron/37.2.1 Safari/537.36" version="28.0.4" pages="4">
  <diagram id="49d7adf36856438d" name="Aws Sqs Sns Graph Tb">
    <mxGraphModel dx="706" dy="604" grid="1" gridSize="10" guides="1" tooltips="1" connect="1" arrows="1" fold="1" page="1" pageScale="1" pageWidth="827" pageHeight="1169" math="0" shadow="0">
      <root>
        <mxCell id="0" />
        <mxCell id="1" parent="0" />
        <UserObject label="" mermaidData="{&quot;data&quot;:&quot;graph TB\n    subgraph \&quot;AWS SNS (Pub/Sub)\&quot;\n        TOPIC[SNS Topic]\n        SUBS[Subscriptions]\n    end\n    \n    subgraph \&quot;AWS SQS (Queuing)\&quot;\n        QUEUE[SQS Queue]\n        DLQ[Dead Letter Queue]\n    end\n    \n    subgraph \&quot;Publishers\&quot;\n        APP[Applications]\n        LAMBDA[Lambda Functions]\n    end\n    \n    subgraph \&quot;Subscribers\&quot;\n        SQS[SQS Queues]\n        EMAIL[Email]\n        SMS[SMS]\n        HTTP[HTTP Endpoints]\n        LAMBDA2[Lambda Functions]\n    end\n    \n    APP --&gt; TOPIC\n    LAMBDA --&gt; TOPIC\n    \n    TOPIC --&gt; SUBS\n    SUBS --&gt; SQS\n    SUBS --&gt; EMAIL\n    SUBS --&gt; SMS\n    SUBS --&gt; HTTP\n    SUBS --&gt; LAMBDA2\n    \n    APP --&gt; QUEUE\n    QUEUE --&gt; DLQ&quot;}" id="7979e21ff8af469b">
          <mxCell style="shape=image;noLabel=1;verticalAlign=top;imageAspect=1;image=data:image/svg+xml,PHN2ZyB3aWR0aD0iMjAwIiBoZWlnaHQ9IjIwMCIgeG1sbnM9Imh0dHA6Ly93d3cudzMub3JnLzIwMDAvc3ZnIj48cmVjdCB3aWR0aD0iMjAwIiBoZWlnaHQ9IjIwMCIgZmlsbD0iI2Y5ZjlmOSIgc3Ryb2tlPSIjY2NjIi8+PHRleHQgeD0iMTAwIiB5PSIxMDAiIHRleHQtYW5jaG9yPSJtaWRkbGUiIGZvbnQtZmFtaWx5PSJBcmlhbCIgZm9udC1zaXplPSIxNCIgZmlsbD0iIzMzMyI+TWVybWFpZCBEaWFncmFtPC90ZXh0Pjwvc3ZnPg==;" vertex="1" parent="1">
            <mxGeometry x="260" y="130" width="200" height="200" as="geometry" />
          </mxCell>
        </UserObject>
      </root>
    </mxGraphModel>
  </diagram>
  <diagram id="ab412d0685c042a7" name="Aws Sqs Sns Graph Tb 2">
    <mxGraphModel dx="706" dy="604" grid="1" gridSize="10" guides="1" tooltips="1" connect="1" arrows="1" fold="1" page="1" pageScale="1" pageWidth="827" pageHeight="1169" math="0" shadow="0">
      <root>
        <mxCell id="0" />
        <mxCell id="1" parent="0" />
        <UserObject label="" mermaidData="{&quot;data&quot;:&quot;graph TB\n    subgraph \&quot;AWS SQS Service\&quot;\n        subgraph \&quot;Standard Queue\&quot;\n            SQ[Standard Queue]\n            MSG[Message Store]\n        end\n        \n        subgraph \&quot;FIFO Queue\&quot;\n            FQ[FIFO Queue]\n            ORDER[Message Ordering]\n        end\n        \n        subgraph \&quot;Features\&quot;\n            VIS[Visibility Timeout]\n            DLQ[Dead Letter Queue]\n            BATCH[Message Batching]\n        end\n    end\n    \n    subgraph \&quot;Producers\&quot;\n        PROD[Applications]\n        LAMBDA[Lambda Functions]\n        EC2[EC2 Instances]\n    end\n    \n    subgraph \&quot;Consumers\&quot;\n        CONS[Applications]\n        LAMBDA2[Lambda Functions]\n        ECS[ECS Tasks]\n    end\n    \n    PROD --&gt; SQ\n    LAMBDA --&gt; SQ\n    EC2 --&gt; FQ\n    \n    SQ --&gt; MSG\n    FQ --&gt; ORDER\n    \n    SQ --&gt; VIS\n    FQ --&gt; DLQ\n    \n    MSG --&gt; CONS\n    ORDER --&gt; LAMBDA2\n    VIS --&gt; ECS&quot;}" id="5fd1647998f74ade">
          <mxCell style="shape=image;noLabel=1;verticalAlign=top;imageAspect=1;image=data:image/svg+xml,PHN2ZyB3aWR0aD0iMjAwIiBoZWlnaHQ9IjIwMCIgeG1sbnM9Imh0dHA6Ly93d3cudzMub3JnLzIwMDAvc3ZnIj48cmVjdCB3aWR0aD0iMjAwIiBoZWlnaHQ9IjIwMCIgZmlsbD0iI2Y5ZjlmOSIgc3Ryb2tlPSIjY2NjIi8+PHRleHQgeD0iMTAwIiB5PSIxMDAiIHRleHQtYW5jaG9yPSJtaWRkbGUiIGZvbnQtZmFtaWx5PSJBcmlhbCIgZm9udC1zaXplPSIxNCIgZmlsbD0iIzMzMyI+TWVybWFpZCBEaWFncmFtPC90ZXh0Pjwvc3ZnPg==;" vertex="1" parent="1">
            <mxGeometry x="260" y="130" width="200" height="200" as="geometry" />
          </mxCell>
        </UserObject>
      </root>
    </mxGraphModel>
  </diagram>
  <diagram id="4b5e4409f10c4e41" name="Aws Sqs Sns Graph Tb 3">
    <mxGraphModel dx="706" dy="604" grid="1" gridSize="10" guides="1" tooltips="1" connect="1" arrows="1" fold="1" page="1" pageScale="1" pageWidth="827" pageHeight="1169" math="0" shadow="0">
      <root>
        <mxCell id="0" />
        <mxCell id="1" parent="0" />
        <UserObject label="" mermaidData="{&quot;data&quot;:&quot;graph TB\n    subgraph \&quot;AWS SNS Service\&quot;\n        subgraph \&quot;Topics\&quot;\n            TOPIC[SNS Topic]\n            FIFO[FIFO Topic]\n        end\n        \n        subgraph \&quot;Delivery\&quot;\n            FANOUT[Fan-out Delivery]\n            FILTER[Message Filtering]\n            RETRY[Retry Logic]\n        end\n    end\n    \n    subgraph \&quot;Publishers\&quot;\n        APP[Applications]\n        CLOUDWATCH[CloudWatch]\n        S3[S3 Events]\n    end\n    \n    subgraph \&quot;Subscribers\&quot;\n        SQS[SQS Queues]\n        EMAIL[Email]\n        SMS[SMS]\n        HTTP[HTTP/HTTPS]\n        LAMBDA[Lambda]\n        MOBILE[Mobile Push]\n    end\n    \n    APP --&gt; TOPIC\n    CLOUDWATCH --&gt; TOPIC\n    S3 --&gt; FIFO\n    \n    TOPIC --&gt; FANOUT\n    FIFO --&gt; FILTER\n    \n    FANOUT --&gt; SQS\n    FANOUT --&gt; EMAIL\n    FANOUT --&gt; SMS\n    FILTER --&gt; HTTP\n    FILTER --&gt; LAMBDA\n    FILTER --&gt; MOBILE\n    \n    FANOUT --&gt; RETRY&quot;}" id="9547d7629a094809">
          <mxCell style="shape=image;noLabel=1;verticalAlign=top;imageAspect=1;image=data:image/svg+xml,PHN2ZyB3aWR0aD0iMjAwIiBoZWlnaHQ9IjIwMCIgeG1sbnM9Imh0dHA6Ly93d3cudzMub3JnLzIwMDAvc3ZnIj48cmVjdCB3aWR0aD0iMjAwIiBoZWlnaHQ9IjIwMCIgZmlsbD0iI2Y5ZjlmOSIgc3Ryb2tlPSIjY2NjIi8+PHRleHQgeD0iMTAwIiB5PSIxMDAiIHRleHQtYW5jaG9yPSJtaWRkbGUiIGZvbnQtZmFtaWx5PSJBcmlhbCIgZm9udC1zaXplPSIxNCIgZmlsbD0iIzMzMyI+TWVybWFpZCBEaWFncmFtPC90ZXh0Pjwvc3ZnPg==;" vertex="1" parent="1">
            <mxGeometry x="260" y="130" width="200" height="200" as="geometry" />
          </mxCell>
        </UserObject>
      </root>
    </mxGraphModel>
  </diagram>
  <diagram id="d3d4afb768494178" name="Aws Sqs Sns Graph Tb 4">
    <mxGraphModel dx="706" dy="604" grid="1" gridSize="10" guides="1" tooltips="1" connect="1" arrows="1" fold="1" page="1" pageScale="1" pageWidth="827" pageHeight="1169" math="0" shadow="0">
      <root>
        <mxCell id="0" />
        <mxCell id="1" parent="0" />
        <UserObject label="" mermaidData="{&quot;data&quot;:&quot;graph TB\n    subgraph \&quot;Primary Region (us-east-1)\&quot;\n        subgraph \&quot;SQS Queues\&quot;\n            SQ1[Order Queue]\n            SQ2[Payment Queue]\n            DLQ1[Dead Letter Queue]\n        end\n        \n        subgraph \&quot;SNS Topics\&quot;\n            SNS1[Order Topic]\n            SNS2[Notification Topic]\n        end\n        \n        subgraph \&quot;Lambda Functions\&quot;\n            L1[Order Processor]\n            L2[Notification Handler]\n        end\n    end\n    \n    subgraph \&quot;Secondary Region (us-west-2)\&quot;\n        subgraph \&quot;SQS Queues\&quot;\n            SQ3[Order Queue Replica]\n            SQ4[Payment Queue Replica]\n            DLQ2[Dead Letter Queue]\n        end\n        \n        subgraph \&quot;SNS Topics\&quot;\n            SNS3[Order Topic Replica]\n            SNS4[Notification Topic Replica]\n        end\n    end\n    \n    subgraph \&quot;Applications\&quot;\n        APP[Web Application]\n        API[API Gateway]\n        MOBILE[Mobile App]\n    end\n    \n    subgraph \&quot;Monitoring\&quot;\n        CW[CloudWatch]\n        ALERT[CloudWatch Alarms]\n        DASH[CloudWatch Dashboard]\n    end\n    \n    APP --&gt; API\n    MOBILE --&gt; API\n    API --&gt; SNS1\n    \n    SNS1 --&gt; SQ1\n    SNS1 --&gt; SQ2\n    SNS1 --&gt; SNS2\n    \n    SQ1 --&gt; L1\n    SQ2 --&gt; L2\n    \n    SQ1 --&gt; DLQ1\n    SQ2 --&gt; DLQ1\n    \n    SNS1 -.-&gt; SNS3\n    SQ1 -.-&gt; SQ3\n    SQ2 -.-&gt; SQ4\n    \n    L1 --&gt; CW\n    L2 --&gt; CW\n    CW --&gt; ALERT\n    CW --&gt; DASH&quot;}" id="6a325e2e34e646ff">
          <mxCell style="shape=image;noLabel=1;verticalAlign=top;imageAspect=1;image=data:image/svg+xml,PHN2ZyB3aWR0aD0iMjAwIiBoZWlnaHQ9IjIwMCIgeG1sbnM9Imh0dHA6Ly93d3cudzMub3JnLzIwMDAvc3ZnIj48cmVjdCB3aWR0aD0iMjAwIiBoZWlnaHQ9IjIwMCIgZmlsbD0iI2Y5ZjlmOSIgc3Ryb2tlPSIjY2NjIi8+PHRleHQgeD0iMTAwIiB5PSIxMDAiIHRleHQtYW5jaG9yPSJtaWRkbGUiIGZvbnQtZmFtaWx5PSJBcmlhbCIgZm9udC1zaXplPSIxNCIgZmlsbD0iIzMzMyI+TWVybWFpZCBEaWFncmFtPC90ZXh0Pjwvc3ZnPg==;" vertex="1" parent="1">
            <mxGeometry x="260" y="130" width="200" height="200" as="geometry" />
          </mxCell>
        </UserObject>
      </root>
    </mxGraphModel>
  </diagram>
</mxfile>